<svg width="305" height="16" viewBox="0 0 305 16" fill="none" xmlns="http://www.w3.org/2000/svg">
<path d="M5.22406 3.64H0.744063V0.999999H12.9441V3.64H8.46406V15H5.22406V3.64ZM23.2042 12H16.7042L15.4642 15H12.1442L18.3842 0.999999H21.5842L27.8442 15H24.4442L23.2042 12ZM22.1842 9.54L19.9642 4.18L17.7442 9.54H22.1842ZM38.5614 7.78H41.5214V13.46C40.7614 14.0333 39.8814 14.4733 38.8814 14.78C37.8814 15.0867 36.8747 15.24 35.8614 15.24C34.4081 15.24 33.1014 14.9333 31.9414 14.32C30.7814 13.6933 29.8681 12.8333 29.2014 11.74C28.5481 10.6333 28.2214 9.38667 28.2214 8C28.2214 6.61333 28.5481 5.37333 29.2014 4.28C29.8681 3.17333 30.7881 2.31333 31.9614 1.7C33.1347 1.07333 34.4547 0.76 35.9214 0.76C37.1481 0.76 38.2614 0.966666 39.2614 1.38C40.2614 1.79333 41.1014 2.39333 41.7814 3.18L39.7014 5.1C38.7014 4.04667 37.4947 3.52 36.0814 3.52C35.1881 3.52 34.3947 3.70667 33.7014 4.08C33.0081 4.45333 32.4681 4.98 32.0814 5.66C31.6947 6.34 31.5014 7.12 31.5014 8C31.5014 8.86667 31.6947 9.64 32.0814 10.32C32.4681 11 33.0014 11.5333 33.6814 11.92C34.3747 12.2933 35.1614 12.48 36.0414 12.48C36.9747 12.48 37.8147 12.28 38.5614 11.88V7.78ZM63.0352 0.999999V15H59.7952V9.26H53.4352V15H50.1952V0.999999H53.4352V6.52H59.7952V0.999999H63.0352ZM77.1875 12.4V15H66.3475V0.999999H76.9275V3.6H69.5675V6.64H76.0675V9.16H69.5675V12.4H77.1875ZM85.9855 15.24C83.9855 15.24 82.4255 14.6867 81.3055 13.58C80.1988 12.4733 79.6455 10.8933 79.6455 8.84V0.999999H82.8855V8.72C82.8855 11.2267 83.9255 12.48 86.0055 12.48C87.0188 12.48 87.7921 12.18 88.3255 11.58C88.8588 10.9667 89.1255 10.0133 89.1255 8.72V0.999999H92.3255V8.84C92.3255 10.8933 91.7655 12.4733 90.6455 13.58C89.5388 14.6867 87.9855 15.24 85.9855 15.24ZM106.367 12.4V15H95.5272V0.999999H106.107V3.6H98.7472V6.64H105.247V9.16H98.7472V12.4H106.367ZM117.865 15L115.165 11.1H115.005H112.185V15H108.945V0.999999H115.005C116.245 0.999999 117.318 1.20667 118.225 1.62C119.145 2.03333 119.852 2.62 120.345 3.38C120.838 4.14 121.085 5.04 121.085 6.08C121.085 7.12 120.832 8.02 120.325 8.78C119.832 9.52667 119.125 10.1 118.205 10.5L121.345 15H117.865ZM117.805 6.08C117.805 5.29333 117.552 4.69333 117.045 4.28C116.538 3.85333 115.798 3.64 114.825 3.64H112.185V8.52H114.825C115.798 8.52 116.538 8.30667 117.045 7.88C117.552 7.45333 117.805 6.85333 117.805 6.08ZM136.016 15.24C134.59 15.24 133.296 14.9333 132.136 14.32C130.99 13.6933 130.083 12.8333 129.416 11.74C128.763 10.6333 128.436 9.38667 128.436 8C128.436 6.61333 128.763 5.37333 129.416 4.28C130.083 3.17333 130.99 2.31333 132.136 1.7C133.296 1.07333 134.596 0.76 136.036 0.76C137.25 0.76 138.343 0.973333 139.316 1.4C140.303 1.82667 141.13 2.44 141.796 3.24L139.716 5.16C138.77 4.06667 137.596 3.52 136.196 3.52C135.33 3.52 134.556 3.71333 133.876 4.1C133.196 4.47333 132.663 5 132.276 5.68C131.903 6.36 131.716 7.13333 131.716 8C131.716 8.86667 131.903 9.64 132.276 10.32C132.663 11 133.196 11.5333 133.876 11.92C134.556 12.2933 135.33 12.48 136.196 12.48C137.596 12.48 138.77 11.9267 139.716 10.82L141.796 12.74C141.13 13.5533 140.303 14.1733 139.316 14.6C138.33 15.0267 137.23 15.24 136.016 15.24ZM152.931 12H146.431L145.191 15H141.871L148.111 0.999999H151.311L157.571 15H154.171L152.931 12ZM151.911 9.54L149.691 4.18L147.471 9.54H151.911ZM167.943 15L165.243 11.1H165.083H162.263V15H159.023V0.999999H165.083C166.323 0.999999 167.397 1.20667 168.303 1.62C169.223 2.03333 169.93 2.62 170.423 3.38C170.917 4.14 171.163 5.04 171.163 6.08C171.163 7.12 170.91 8.02 170.403 8.78C169.91 9.52667 169.203 10.1 168.283 10.5L171.423 15H167.943ZM167.883 6.08C167.883 5.29333 167.63 4.69333 167.123 4.28C166.617 3.85333 165.877 3.64 164.903 3.64H162.263V8.52H164.903C165.877 8.52 166.617 8.30667 167.123 7.88C167.63 7.45333 167.883 6.85333 167.883 6.08ZM182.65 15L179.95 11.1H179.79H176.97V15H173.73V0.999999H179.79C181.03 0.999999 182.104 1.20667 183.01 1.62C183.93 2.03333 184.637 2.62 185.13 3.38C185.624 4.14 185.87 5.04 185.87 6.08C185.87 7.12 185.617 8.02 185.11 8.78C184.617 9.52667 183.91 10.1 182.99 10.5L186.13 15H182.65ZM182.59 6.08C182.59 5.29333 182.337 4.69333 181.83 4.28C181.324 3.85333 180.584 3.64 179.61 3.64H176.97V8.52H179.61C180.584 8.52 181.324 8.30667 181.83 7.88C182.337 7.45333 182.59 6.85333 182.59 6.08ZM199.277 12.4V15H188.437V0.999999H199.017V3.6H191.657V6.64H198.157V9.16H191.657V12.4H199.277ZM210.775 15L208.075 11.1H207.915H205.095V15H201.855V0.999999H207.915C209.155 0.999999 210.229 1.20667 211.135 1.62C212.055 2.03333 212.762 2.62 213.255 3.38C213.749 4.14 213.995 5.04 213.995 6.08C213.995 7.12 213.742 8.02 213.235 8.78C212.742 9.52667 212.035 10.1 211.115 10.5L214.255 15H210.775ZM210.715 6.08C210.715 5.29333 210.462 4.69333 209.955 4.28C209.449 3.85333 208.709 3.64 207.735 3.64H205.095V8.52H207.735C208.709 8.52 209.449 8.30667 209.955 7.88C210.462 7.45333 210.715 6.85333 210.715 6.08ZM225.782 12H219.282L218.042 15H214.722L220.962 0.999999H224.162L230.422 15H227.022L225.782 12ZM224.762 9.54L222.542 4.18L220.322 9.54H224.762ZM242.139 15.24C241.032 15.24 239.959 15.0933 238.919 14.8C237.892 14.4933 237.066 14.1 236.439 13.62L237.539 11.18C238.139 11.62 238.852 11.9733 239.679 12.24C240.506 12.5067 241.332 12.64 242.159 12.64C243.079 12.64 243.759 12.5067 244.199 12.24C244.639 11.96 244.859 11.5933 244.859 11.14C244.859 10.8067 244.726 10.5333 244.459 10.32C244.206 10.0933 243.872 9.91333 243.459 9.78C243.059 9.64667 242.512 9.5 241.819 9.34C240.752 9.08667 239.879 8.83333 239.199 8.58C238.519 8.32667 237.932 7.92 237.439 7.36C236.959 6.8 236.719 6.05333 236.719 5.12C236.719 4.30667 236.939 3.57333 237.379 2.92C237.819 2.25333 238.479 1.72667 239.359 1.34C240.252 0.953333 241.339 0.76 242.619 0.76C243.512 0.76 244.386 0.866666 245.239 1.08C246.092 1.29333 246.839 1.6 247.479 2L246.479 4.46C245.186 3.72667 243.892 3.36 242.599 3.36C241.692 3.36 241.019 3.50667 240.579 3.8C240.152 4.09333 239.939 4.48 239.939 4.96C239.939 5.44 240.186 5.8 240.679 6.04C241.186 6.26667 241.952 6.49333 242.979 6.72C244.046 6.97333 244.919 7.22667 245.599 7.48C246.279 7.73333 246.859 8.13333 247.339 8.68C247.832 9.22667 248.079 9.96667 248.079 10.9C248.079 11.7 247.852 12.4333 247.399 13.1C246.959 13.7533 246.292 14.2733 245.399 14.66C244.506 15.0467 243.419 15.24 242.139 15.24ZM256.353 0.999999C257.593 0.999999 258.666 1.20667 259.573 1.62C260.493 2.03333 261.199 2.62 261.693 3.38C262.186 4.14 262.433 5.04 262.433 6.08C262.433 7.10667 262.186 8.00667 261.693 8.78C261.199 9.54 260.493 10.1267 259.573 10.54C258.666 10.94 257.593 11.14 256.353 11.14H253.533V15H250.293V0.999999H256.353ZM256.173 8.5C257.146 8.5 257.886 8.29333 258.393 7.88C258.899 7.45333 259.153 6.85333 259.153 6.08C259.153 5.29333 258.899 4.69333 258.393 4.28C257.886 3.85333 257.146 3.64 256.173 3.64H253.533V8.5H256.173ZM273.263 12H266.763L265.523 15H262.203L268.443 0.999999H271.643L277.903 15H274.503L273.263 12ZM272.243 9.54L270.023 4.18L267.803 9.54H272.243ZM285.86 15.24C284.433 15.24 283.14 14.9333 281.98 14.32C280.833 13.6933 279.927 12.8333 279.26 11.74C278.607 10.6333 278.28 9.38667 278.28 8C278.28 6.61333 278.607 5.37333 279.26 4.28C279.927 3.17333 280.833 2.31333 281.98 1.7C283.14 1.07333 284.44 0.76 285.88 0.76C287.093 0.76 288.187 0.973333 289.16 1.4C290.147 1.82667 290.973 2.44 291.64 3.24L289.56 5.16C288.613 4.06667 287.44 3.52 286.04 3.52C285.173 3.52 284.4 3.71333 283.72 4.1C283.04 4.47333 282.507 5 282.12 5.68C281.747 6.36 281.56 7.13333 281.56 8C281.56 8.86667 281.747 9.64 282.12 10.32C282.507 11 283.04 11.5333 283.72 11.92C284.4 12.2933 285.173 12.48 286.04 12.48C287.44 12.48 288.613 11.9267 289.56 10.82L291.64 12.74C290.973 13.5533 290.147 14.1733 289.16 14.6C288.173 15.0267 287.073 15.24 285.86 15.24ZM304.668 12.4V15H293.828V0.999999H304.408V3.6H297.048V6.64H303.548V9.16H297.048V12.4H304.668Z" fill="black"/>
</svg>
