<svg width="108" height="16" viewBox="0 0 108 16" fill="none" xmlns="http://www.w3.org/2000/svg">
<path d="M0.66 0.999999H3.9V12.36H10.92V15H0.66V0.999999ZM18.3944 0.999999H24.7544C26.2744 0.999999 27.6144 1.29333 28.7744 1.88C29.9477 2.45333 30.8544 3.26667 31.4944 4.32C32.1477 5.37333 32.4744 6.6 32.4744 8C32.4744 9.4 32.1477 10.6267 31.4944 11.68C30.8544 12.7333 29.9477 13.5533 28.7744 14.14C27.6144 14.7133 26.2744 15 24.7544 15H18.3944V0.999999ZM24.5944 12.34C25.9944 12.34 27.1077 11.9533 27.9344 11.18C28.7744 10.3933 29.1944 9.33333 29.1944 8C29.1944 6.66667 28.7744 5.61333 27.9344 4.84C27.1077 4.05333 25.9944 3.66 24.5944 3.66H21.6344V12.34H24.5944ZM41.1378 15.24C39.1378 15.24 37.5778 14.6867 36.4578 13.58C35.3511 12.4733 34.7978 10.8933 34.7978 8.84V0.999999H38.0378V8.72C38.0378 11.2267 39.0778 12.48 41.1578 12.48C42.1711 12.48 42.9445 12.18 43.4778 11.58C44.0111 10.9667 44.2778 10.0133 44.2778 8.72V0.999999H47.4778V8.84C47.4778 10.8933 46.9178 12.4733 45.7978 13.58C44.6911 14.6867 43.1378 15.24 41.1378 15.24ZM57.3795 15.24C55.9529 15.24 54.6595 14.9333 53.4995 14.32C52.3529 13.6933 51.4462 12.8333 50.7795 11.74C50.1262 10.6333 49.7995 9.38667 49.7995 8C49.7995 6.61333 50.1262 5.37333 50.7795 4.28C51.4462 3.17333 52.3529 2.31333 53.4995 1.7C54.6595 1.07333 55.9595 0.76 57.3995 0.76C58.6129 0.76 59.7062 0.973333 60.6795 1.4C61.6662 1.82667 62.4929 2.44 63.1595 3.24L61.0795 5.16C60.1329 4.06667 58.9595 3.52 57.5595 3.52C56.6929 3.52 55.9195 3.71333 55.2395 4.1C54.5595 4.47333 54.0262 5 53.6395 5.68C53.2662 6.36 53.0795 7.13333 53.0795 8C53.0795 8.86667 53.2662 9.64 53.6395 10.32C54.0262 11 54.5595 11.5333 55.2395 11.92C55.9195 12.2933 56.6929 12.48 57.5595 12.48C58.9595 12.48 60.1329 11.9267 61.0795 10.82L63.1595 12.74C62.4929 13.5533 61.6662 14.1733 60.6795 14.6C59.6929 15.0267 58.5929 15.24 57.3795 15.24ZM78.1875 0.999999V15H74.9475V9.26H68.5875V15H65.3475V0.999999H68.5875V6.52H74.9475V0.999999H78.1875ZM92.3398 12.4V15H81.4998V0.999999H92.0798V3.6H84.7198V6.64H91.2198V9.16H84.7198V12.4H92.3398ZM107.758 0.999999V15H105.098L98.1178 6.5V15H94.9178V0.999999H97.5978L104.558 9.5V0.999999H107.758Z" fill="black"/>
</svg>
