<svg width="71" height="16" viewBox="0 0 71 16" fill="none" xmlns="http://www.w3.org/2000/svg">
<path d="M9.58 15L6.88 11.1H6.72H3.9V15H0.66V0.999999H6.72C7.96 0.999999 9.03333 1.20667 9.94 1.62C10.86 2.03333 11.5667 2.62 12.06 3.38C12.5533 4.14 12.8 5.04 12.8 6.08C12.8 7.12 12.5467 8.02 12.04 8.78C11.5467 9.52667 10.84 10.1 9.92 10.5L13.06 15H9.58ZM9.52 6.08C9.52 5.29333 9.26667 4.69333 8.76 4.28C8.25333 3.85333 7.51333 3.64 6.54 3.64H3.9V8.52H6.54C7.51333 8.52 8.25333 8.30667 8.76 7.88C9.26667 7.45333 9.52 6.85333 9.52 6.08ZM22.147 15.24C20.6937 15.24 19.3804 14.9267 18.207 14.3C17.047 13.6733 16.1337 12.8133 15.467 11.72C14.8137 10.6133 14.487 9.37333 14.487 8C14.487 6.62667 14.8137 5.39333 15.467 4.3C16.1337 3.19333 17.047 2.32667 18.207 1.7C19.3804 1.07333 20.6937 0.76 22.147 0.76C23.6004 0.76 24.907 1.07333 26.067 1.7C27.227 2.32667 28.1404 3.19333 28.807 4.3C29.4737 5.39333 29.807 6.62667 29.807 8C29.807 9.37333 29.4737 10.6133 28.807 11.72C28.1404 12.8133 27.227 13.6733 26.067 14.3C24.907 14.9267 23.6004 15.24 22.147 15.24ZM22.147 12.48C22.9737 12.48 23.7204 12.2933 24.387 11.92C25.0537 11.5333 25.5737 11 25.947 10.32C26.3337 9.64 26.527 8.86667 26.527 8C26.527 7.13333 26.3337 6.36 25.947 5.68C25.5737 5 25.0537 4.47333 24.387 4.1C23.7204 3.71333 22.9737 3.52 22.147 3.52C21.3204 3.52 20.5737 3.71333 19.907 4.1C19.2404 4.47333 18.7137 5 18.327 5.68C17.9537 6.36 17.767 7.13333 17.767 8C17.767 8.86667 17.9537 9.64 18.327 10.32C18.7137 11 19.2404 11.5333 19.907 11.92C20.5737 12.2933 21.3204 12.48 22.147 12.48ZM32.242 0.999999H35.482V12.36H42.502V15H32.242V0.999999ZM55.1523 12.4V15H44.3123V0.999999H54.8923V3.6H47.5323V6.64H54.0323V9.16H47.5323V12.4H55.1523ZM66.4136 15L63.0336 10.14L59.7136 15H55.9936L61.1736 7.88L56.2536 0.999999H59.9336L63.1536 5.54L66.3136 0.999999H69.8136L64.9336 7.76L70.1536 15H66.4136Z" fill="black"/>
</svg>
