<svg width="208" height="16" viewBox="0 0 208 16" fill="none" xmlns="http://www.w3.org/2000/svg">
<path d="M11.88 12H5.38L4.14 15H0.82L7.06 0.999999H10.26L16.52 15H13.12L11.88 12ZM10.86 9.54L8.64 4.18L6.42 9.54H10.86ZM23.8995 15.24C21.8995 15.24 20.3395 14.6867 19.2195 13.58C18.1129 12.4733 17.5595 10.8933 17.5595 8.84V0.999999H20.7995V8.72C20.7995 11.2267 21.8395 12.48 23.9195 12.48C24.9329 12.48 25.7062 12.18 26.2395 11.58C26.7729 10.9667 27.0395 10.0133 27.0395 8.72V0.999999H30.2395V8.84C30.2395 10.8933 29.6795 12.4733 28.5595 13.58C27.4529 14.6867 25.8995 15.24 23.8995 15.24ZM33.4413 0.999999H39.8013C41.3213 0.999999 42.6613 1.29333 43.8213 1.88C44.9946 2.45333 45.9013 3.26667 46.5413 4.32C47.1946 5.37333 47.5213 6.6 47.5213 8C47.5213 9.4 47.1946 10.6267 46.5413 11.68C45.9013 12.7333 44.9946 13.5533 43.8213 14.14C42.6613 14.7133 41.3213 15 39.8013 15H33.4413V0.999999ZM39.6413 12.34C41.0413 12.34 42.1546 11.9533 42.9813 11.18C43.8213 10.3933 44.2413 9.33333 44.2413 8C44.2413 6.66667 43.8213 5.61333 42.9813 4.84C42.1546 4.05333 41.0413 3.66 39.6413 3.66H36.6813V12.34H39.6413ZM60.8047 12.4V15H49.9647V0.999999H60.5447V3.6H53.1847V6.64H59.6847V9.16H53.1847V12.4H60.8047ZM76.1227 15L76.1027 6.6L71.9827 13.52H70.5227L66.4227 6.78V15H63.3827V0.999999H66.0627L71.3027 9.7L76.4627 0.999999H79.1227L79.1627 15H76.1227ZM91.7042 12H85.2042L83.9642 15H80.6442L86.8842 0.999999H90.0842L96.3442 15H92.9442L91.7042 12ZM90.6842 9.54L88.4642 4.18L86.2442 9.54H90.6842ZM106.717 15L104.017 11.1H103.857H101.037V15H97.7967V0.999999H103.857C105.097 0.999999 106.17 1.20667 107.077 1.62C107.997 2.03333 108.703 2.62 109.197 3.38C109.69 4.14 109.937 5.04 109.937 6.08C109.937 7.12 109.683 8.02 109.177 8.78C108.683 9.52667 107.977 10.1 107.057 10.5L110.197 15H106.717ZM106.657 6.08C106.657 5.29333 106.403 4.69333 105.897 4.28C105.39 3.85333 104.65 3.64 103.677 3.64H101.037V8.52H103.677C104.65 8.52 105.39 8.30667 105.897 7.88C106.403 7.45333 106.657 6.85333 106.657 6.08ZM117.104 15.24C115.997 15.24 114.924 15.0933 113.884 14.8C112.857 14.4933 112.03 14.1 111.404 13.62L112.504 11.18C113.104 11.62 113.817 11.9733 114.644 12.24C115.47 12.5067 116.297 12.64 117.124 12.64C118.044 12.64 118.724 12.5067 119.164 12.24C119.604 11.96 119.824 11.5933 119.824 11.14C119.824 10.8067 119.69 10.5333 119.424 10.32C119.17 10.0933 118.837 9.91333 118.424 9.78C118.024 9.64667 117.477 9.5 116.784 9.34C115.717 9.08667 114.844 8.83333 114.164 8.58C113.484 8.32667 112.897 7.92 112.404 7.36C111.924 6.8 111.684 6.05333 111.684 5.12C111.684 4.30667 111.904 3.57333 112.344 2.92C112.784 2.25333 113.444 1.72667 114.324 1.34C115.217 0.953333 116.304 0.76 117.584 0.76C118.477 0.76 119.35 0.866666 120.204 1.08C121.057 1.29333 121.804 1.6 122.444 2L121.444 4.46C120.15 3.72667 118.857 3.36 117.564 3.36C116.657 3.36 115.984 3.50667 115.544 3.8C115.117 4.09333 114.904 4.48 114.904 4.96C114.904 5.44 115.15 5.8 115.644 6.04C116.15 6.26667 116.917 6.49333 117.944 6.72C119.01 6.97333 119.884 7.22667 120.564 7.48C121.244 7.73333 121.824 8.13333 122.304 8.68C122.797 9.22667 123.044 9.96667 123.044 10.9C123.044 11.7 122.817 12.4333 122.364 13.1C121.924 13.7533 121.257 14.2733 120.364 14.66C119.47 15.0467 118.384 15.24 117.104 15.24ZM136.982 0.999999C138.222 0.999999 139.295 1.20667 140.202 1.62C141.122 2.03333 141.828 2.62 142.322 3.38C142.815 4.14 143.062 5.04 143.062 6.08C143.062 7.10667 142.815 8.00667 142.322 8.78C141.828 9.54 141.122 10.1267 140.202 10.54C139.295 10.94 138.222 11.14 136.982 11.14H134.162V15H130.922V0.999999H136.982ZM136.802 8.5C137.775 8.5 138.515 8.29333 139.022 7.88C139.528 7.45333 139.782 6.85333 139.782 6.08C139.782 5.29333 139.528 4.69333 139.022 4.28C138.515 3.85333 137.775 3.64 136.802 3.64H134.162V8.5H136.802ZM145.375 0.999999H148.615V15H145.375V0.999999ZM161.397 7.78H164.357V13.46C163.597 14.0333 162.717 14.4733 161.717 14.78C160.717 15.0867 159.711 15.24 158.697 15.24C157.244 15.24 155.937 14.9333 154.777 14.32C153.617 13.6933 152.704 12.8333 152.037 11.74C151.384 10.6333 151.057 9.38667 151.057 8C151.057 6.61333 151.384 5.37333 152.037 4.28C152.704 3.17333 153.624 2.31333 154.797 1.7C155.971 1.07333 157.291 0.76 158.757 0.76C159.984 0.76 161.097 0.966666 162.097 1.38C163.097 1.79333 163.937 2.39333 164.617 3.18L162.537 5.1C161.537 4.04667 160.331 3.52 158.917 3.52C158.024 3.52 157.231 3.70667 156.537 4.08C155.844 4.45333 155.304 4.98 154.917 5.66C154.531 6.34 154.337 7.12 154.337 8C154.337 8.86667 154.531 9.64 154.917 10.32C155.304 11 155.837 11.5333 156.517 11.92C157.211 12.2933 157.997 12.48 158.877 12.48C159.811 12.48 160.651 12.28 161.397 11.88V7.78ZM173.587 15.24C171.587 15.24 170.027 14.6867 168.907 13.58C167.8 12.4733 167.247 10.8933 167.247 8.84V0.999999H170.487V8.72C170.487 11.2267 171.527 12.48 173.607 12.48C174.62 12.48 175.394 12.18 175.927 11.58C176.46 10.9667 176.727 10.0133 176.727 8.72V0.999999H179.927V8.84C179.927 10.8933 179.367 12.4733 178.247 13.58C177.14 14.6867 175.587 15.24 173.587 15.24ZM193.969 12.4V15H183.129V0.999999H193.709V3.6H186.349V6.64H192.849V9.16H186.349V12.4H193.969ZM199.447 3.64H194.967V0.999999H207.167V3.64H202.687V15H199.447V3.64Z" fill="black"/>
</svg>
