<svg width="75" height="16" viewBox="0 0 75 16" fill="none" xmlns="http://www.w3.org/2000/svg">
<path d="M6.26 15.24C5.15333 15.24 4.08 15.0933 3.04 14.8C2.01333 14.4933 1.18667 14.1 0.56 13.62L1.66 11.18C2.26 11.62 2.97333 11.9733 3.8 12.24C4.62667 12.5067 5.45333 12.64 6.28 12.64C7.2 12.64 7.88 12.5067 8.32 12.24C8.76 11.96 8.98 11.5933 8.98 11.14C8.98 10.8067 8.84667 10.5333 8.58 10.32C8.32667 10.0933 7.99333 9.91333 7.58 9.78C7.18 9.64667 6.63333 9.5 5.94 9.34C4.87333 9.08667 4 8.83333 3.32 8.58C2.64 8.32667 2.05333 7.92 1.56 7.36C1.08 6.8 0.84 6.05333 0.84 5.12C0.84 4.30667 1.06 3.57333 1.5 2.92C1.94 2.25333 2.6 1.72667 3.48 1.34C4.37333 0.953333 5.46 0.76 6.74 0.76C7.63333 0.76 8.50667 0.866666 9.36 1.08C10.2133 1.29333 10.96 1.6 11.6 2L10.6 4.46C9.30667 3.72667 8.01333 3.36 6.72 3.36C5.81333 3.36 5.14 3.50667 4.7 3.8C4.27333 4.09333 4.06 4.48 4.06 4.96C4.06 5.44 4.30667 5.8 4.8 6.04C5.30667 6.26667 6.07333 6.49333 7.1 6.72C8.16667 6.97333 9.04 7.22667 9.72 7.48C10.4 7.73333 10.98 8.13333 11.46 8.68C11.9533 9.22667 12.2 9.96667 12.2 10.9C12.2 11.7 11.9733 12.4333 11.52 13.1C11.08 13.7533 10.4133 14.2733 9.52 14.66C8.62667 15.0467 7.54 15.24 6.26 15.24ZM20.4739 0.999999C21.7139 0.999999 22.7872 1.20667 23.6939 1.62C24.6139 2.03333 25.3206 2.62 25.8139 3.38C26.3072 4.14 26.5539 5.04 26.5539 6.08C26.5539 7.10667 26.3072 8.00667 25.8139 8.78C25.3206 9.54 24.6139 10.1267 23.6939 10.54C22.7872 10.94 21.7139 11.14 20.4739 11.14H17.6539V15H14.4139V0.999999H20.4739ZM20.2939 8.5C21.2672 8.5 22.0072 8.29333 22.5139 7.88C23.0206 7.45333 23.2739 6.85333 23.2739 6.08C23.2739 5.29333 23.0206 4.69333 22.5139 4.28C22.0072 3.85333 21.2672 3.64 20.2939 3.64H17.6539V8.5H20.2939ZM28.867 0.999999H32.107V15H28.867V0.999999ZM40.5295 9.5L38.6495 11.46V15H35.4295V0.999999H38.6495V7.54L44.8495 0.999999H48.4495L42.6495 7.24L48.7895 15H45.0095L40.5295 9.5ZM61.0742 12.4V15H50.2342V0.999999H60.8142V3.6H53.4542V6.64H59.9542V9.16H53.4542V12.4H61.0742ZM68.2522 15.24C67.1455 15.24 66.0722 15.0933 65.0322 14.8C64.0055 14.4933 63.1789 14.1 62.5522 13.62L63.6522 11.18C64.2522 11.62 64.9655 11.9733 65.7922 12.24C66.6189 12.5067 67.4455 12.64 68.2722 12.64C69.1922 12.64 69.8722 12.5067 70.3122 12.24C70.7522 11.96 70.9722 11.5933 70.9722 11.14C70.9722 10.8067 70.8389 10.5333 70.5722 10.32C70.3189 10.0933 69.9855 9.91333 69.5722 9.78C69.1722 9.64667 68.6255 9.5 67.9322 9.34C66.8655 9.08667 65.9922 8.83333 65.3122 8.58C64.6322 8.32667 64.0455 7.92 63.5522 7.36C63.0722 6.8 62.8322 6.05333 62.8322 5.12C62.8322 4.30667 63.0522 3.57333 63.4922 2.92C63.9322 2.25333 64.5922 1.72667 65.4722 1.34C66.3655 0.953333 67.4522 0.76 68.7322 0.76C69.6255 0.76 70.4989 0.866666 71.3522 1.08C72.2055 1.29333 72.9522 1.6 73.5922 2L72.5922 4.46C71.2989 3.72667 70.0055 3.36 68.7122 3.36C67.8055 3.36 67.1322 3.50667 66.6922 3.8C66.2655 4.09333 66.0522 4.48 66.0522 4.96C66.0522 5.44 66.2989 5.8 66.7922 6.04C67.2989 6.26667 68.0655 6.49333 69.0922 6.72C70.1589 6.97333 71.0322 7.22667 71.7122 7.48C72.3922 7.73333 72.9722 8.13333 73.4522 8.68C73.9455 9.22667 74.1922 9.96667 74.1922 10.9C74.1922 11.7 73.9655 12.4333 73.5122 13.1C73.0722 13.7533 72.4055 14.2733 71.5122 14.66C70.6189 15.0467 69.5322 15.24 68.2522 15.24Z" fill="black"/>
</svg>
