<svg width="91" height="16" viewBox="0 0 91 16" fill="none" xmlns="http://www.w3.org/2000/svg">
<path d="M8.36 15.24C6.93333 15.24 5.64 14.9333 4.48 14.32C3.33333 13.6933 2.42667 12.8333 1.76 11.74C1.10667 10.6333 0.78 9.38667 0.78 8C0.78 6.61333 1.10667 5.37333 1.76 4.28C2.42667 3.17333 3.33333 2.31333 4.48 1.7C5.64 1.07333 6.94 0.76 8.38 0.76C9.59333 0.76 10.6867 0.973333 11.66 1.4C12.6467 1.82667 13.4733 2.44 14.14 3.24L12.06 5.16C11.1133 4.06667 9.94 3.52 8.54 3.52C7.67333 3.52 6.9 3.71333 6.22 4.1C5.54 4.47333 5.00667 5 4.62 5.68C4.24667 6.36 4.06 7.13333 4.06 8C4.06 8.86667 4.24667 9.64 4.62 10.32C5.00667 11 5.54 11.5333 6.22 11.92C6.9 12.2933 7.67333 12.48 8.54 12.48C9.94 12.48 11.1133 11.9267 12.06 10.82L14.14 12.74C13.4733 13.5533 12.6467 14.1733 11.66 14.6C10.6733 15.0267 9.57333 15.24 8.36 15.24ZM25.2745 12H18.7745L17.5345 15H14.2145L20.4545 0.999999H23.6545L29.9145 15H26.5145L25.2745 12ZM24.2545 9.54L22.0345 4.18L19.8145 9.54H24.2545ZM40.287 15L37.587 11.1H37.427H34.607V15H31.367V0.999999H37.427C38.667 0.999999 39.7404 1.20667 40.647 1.62C41.567 2.03333 42.2737 2.62 42.767 3.38C43.2604 4.14 43.507 5.04 43.507 6.08C43.507 7.12 43.2537 8.02 42.747 8.78C42.2537 9.52667 41.547 10.1 40.627 10.5L43.767 15H40.287ZM40.227 6.08C40.227 5.29333 39.9737 4.69333 39.467 4.28C38.9604 3.85333 38.2204 3.64 37.247 3.64H34.607V8.52H37.247C38.2204 8.52 38.9604 8.30667 39.467 7.88C39.9737 7.45333 40.227 6.85333 40.227 6.08ZM48.7788 3.64H44.2988V0.999999H56.4988V3.64H52.0188V15H48.7788V3.64ZM58.242 0.999999H61.482V15H58.242V0.999999ZM75.6445 12.4V15H64.8045V0.999999H75.3845V3.6H68.0245V6.64H74.5245V9.16H68.0245V12.4H75.6445ZM87.1425 15L84.4425 11.1H84.2825H81.4625V15H78.2225V0.999999H84.2825C85.5225 0.999999 86.5958 1.20667 87.5025 1.62C88.4225 2.03333 89.1292 2.62 89.6225 3.38C90.1158 4.14 90.3625 5.04 90.3625 6.08C90.3625 7.12 90.1092 8.02 89.6025 8.78C89.1092 9.52667 88.4025 10.1 87.4825 10.5L90.6225 15H87.1425ZM87.0825 6.08C87.0825 5.29333 86.8292 4.69333 86.3225 4.28C85.8158 3.85333 85.0758 3.64 84.1025 3.64H81.4625V8.52H84.1025C85.0758 8.52 85.8158 8.30667 86.3225 7.88C86.8292 7.45333 87.0825 6.85333 87.0825 6.08Z" fill="black"/>
</svg>
